# AST/ASF file generated using VICON BodyLanguage
# -----------------------------------------------
:version 1.10
:name VICON
:units
  mass 1.0
  length 0.45
  angle deg
:documentation
   .ast/.asf automatically generated from VICON data using
   VICON BodyBuilder and BodyLanguage model FoxedUp or BRILLIANT.MOD
:root
   order TX TY TZ RX RY RZ
   axis XYZ
   position 0 0 0  
   orientation 0 0 0 
:bonedata
  begin
     id 1 
     name lhipjoint
     direction 0.567149 -0.783011 0.255413 
     length 2.28399 
     axis 0 0 0  XYZ
  end
  begin
     id 2 
     name lfemur
     direction 0.34202 -0.939693 0  
     length 7.34031  
     axis 0 0 20  XYZ
    dof rx ry rz
    limits (-160.0 20.0)
           (-70.0 70.0)
           (-60.0 70.0)
  end
  begin
     id 3 
     name ltibia
     direction 0.34202 -0.939693 0   
     length 6.9833   
     axis 0 0 20   XYZ
    dof rx
    limits (-10.0 170.0)
  end
  begin
     id 4 
     name lfoot
     direction 0.136498 -0.375025 0.91691   
     length 2.33665   
     axis -90 7.62852e-016 20   XYZ
    dof rx rz
    limits (-45.0 90.0)
           (-70.0 20.0)
  end
  begin
     id 5 
     name ltoes
     direction 1.5367e-011 -4.21617e-011 1   
     length 1.15039   
     axis -90 7.62852e-016 20   XYZ
    dof rx
    limits (-90.0 20.0)
  end
  begin
     id 6 
     name rhipjoint
     direction -0.602854 -0.758518 0.247423   
     length 2.35775  
     axis 0 0 0  XYZ 
  end
  begin
     id 7 
     name rfemur
     direction -0.34202 -0.939693 0   
     length 7.43932   
     axis 0 0 -20   XYZ
    dof rx ry rz
    limits (-160.0 20.0)
           (-70.0 70.0)
           (-70.0 60.0)
  end
  begin
     id 8 
     name rtibia
     direction -0.34202 -0.939693 0   
     length 7.11893   
     axis 0 0 -20   XYZ
    dof rx
    limits (-10.0 170.0)
 end
 begin
     id 9 
     name rfoot
     direction -0.131771 -0.362037 0.922803   
     length 2.53019  
     axis -90 -7.62852e-016 -20   XYZ
    dof rx rz
    limits (-45.0 90.0)
           (-20.0 70.0)
  end
  begin
     id 10 
     name rtoes
     direction -1.53733e-011 -4.21932e-011 1   
     length 1.24596   
     axis -90 -7.62852e-016 -20   XYZ
    dof rx
    limits (-90.0 20.0)
  end
  begin
     id 11 
     name lowerback
     direction 0.0235427 0.999023 -0.0374125   
     length 2.21768   
     axis 0 0 0   XYZ
    dof rx ry rz
    limits (-20.0 45.0)
           (-30.0 30.0)
           (-30.0 30.0)
  end
  begin
     id 12 
     name upperback
     direction 0.0302156 0.996818 -0.073759   
     length 2.20352   
     axis 0 0 0   XYZ
    dof rx ry rz
    limits (-20.0 45.0)
           (-30.0 30.0)
           (-30.0 30.0)
  end
  begin
     id 13 
     name thorax
     direction 0.0187169 0.998235 -0.0563532   
     length 2.22103   
     axis 0 0 0   XYZ
    dof rx ry rz
    limits (-20.0 45.0)
           (-30.0 30.0)
           (-30.0 30.0)
  end
  begin
     id 14 
     name lowerneck
     direction -0.119528 0.987423 0.103481   
     length 1.72948   
     axis 0 0 0   XYZ
    dof rx ry rz
    limits (-20.0 45.0)
           (-30.0 30.0)
           (-30.0 30.0)
  end
  begin
     id 15 
     name upperneck
     direction 0.248049 0.963095 -0.104496   
     length 1.74979   
     axis 0 0 0   XYZ
    dof rx ry rz
    limits (-20.0 45.0)
           (-30.0 30.0)
           (-30.0 30.0)
  end
  begin
     id 16
     name head
     direction 0.0903589 0.994284 -0.056876  
     length 1.78268  
     axis 0 0 0   XYZ
    dof rx ry rz
    limits (-20.0 45.0)
           (-30.0 30.0)
           (-30.0 30.0)
  end
  begin
     id 17 
     name lclavicle
     direction 0.946008 0.242039 -0.215608  
     length 3.80783  
     axis 0 0 0   XYZ
    dof ry rz
    limits (-20.0 10.0)
           (0.0 20.0)
  end
  begin
     id 18 
     name lhumerus
     direction 1 -4.48991e-011 -2.25695e-027   
     length 4.83125   
     axis 180 -30 -90   XYZ
    dof rx ry rz
    limits (-60.0 90.0)
           (-90.0 90.0)
           (-90.0 90.0)
  end
  begin
     id 19
     name lradius
     direction 0.999991 0.00366712 -0.00211721   
     length 3.00391   
     axis 180 -30 -90   XYZ
    dof rx
    limits (-10.0 170.0)
  end
  begin
     id 20
     name lwrist
     direction 0.999991 0.00393016 -0.00141978   
     length 1.50195   
     axis -1.00488e-014 90 90   XYZ
    dof ry
    limits (-180.0 0.0)
 end
  begin
     id 21 
     name lhand
     direction 1 -4.49123e-011 2.72098e-026   
     length 1.2717   
     axis -1.73687e-014 90 90   XYZ
    dof rx rz
    limits (-90.0 90.0)
           (-45.0 45.0)
  end
  begin
     id 22 
     name lfingers
     direction 1 -4.48678e-011 5.4479e-026   
     length 1.02528   
     axis -3.47372e-014 90 90   XYZ
    dof rx
    limits (0.0 90.0)
  end
  begin
     id 23
     name lthumb
     direction 0.707107 -6.34851e-011 0.707107   
     length 1.4721   
     axis -90 45 -1.62303e-014   XYZ
    dof rx rz
    limits (-45.0 45.0)
           (-45.0 45.0)
  end
  begin
     id 24 
     name rclavicle
     direction -0.981723 0.189447 -0.0181673   
     length 3.74989  
     axis 0 0 0   XYZ 
    dof ry rz
    limits (-10.0 20.0)
           (-20.0 0.0)
  end
  begin
     id 25 
     name rhumerus
     direction -1 -4.48985e-011 2.38206e-027  
     length 4.61118   
     axis 180 30 90   XYZ
    dof rx ry rz
    limits (-90.0 60.0)
           (-90.0 90.0)
           (-90.0 90.0)
  end
  begin
     id 26 
     name rradius
     direction -1 -4.48977e-011 7.41019e-027   
     length 2.91491   
     axis 180 30 90   XYZ
    dof rx
    limits (-10.0 170.0)
  end
  begin
     id 27 
     name rwrist
     direction -1 -4.48549e-011 1.3624e-026   
     length 1.45745   
     axis -1.00488e-014 -90 -90   XYZ
    dof ry
    limits (-180.0 0.0)
  end
  begin
     id 28
     name rhand
     direction -1 -4.49107e-011 2.72109e-026   
     length 1.30769   
     axis -1.73687e-014 -90 -90   XYZ
    dof rx rz
    limits (-90.0 90.0)
           (-45.0 45.0)
  end
  begin
     id 29
     name rfingers
     direction -1 -4.48919e-011 5.44468e-026   
     length 1.05429   
     axis -3.47372e-014 -90 -90   XYZ
    dof rx
    limits (0.0 90.0)
  end
  begin
     id 30
     name rthumb
     direction -0.707107 -6.35315e-011 0.707107   
     length 1.51376   
     axis -90 -45 1.62303e-014   XYZ
    dof rx rz
    limits (-45.0 45.0)
           (-45.0 45.0)
  end
:hierarchy
  begin
    root lhipjoint rhipjoint lowerback
    lhipjoint lfemur
    lfemur ltibia
    ltibia lfoot
    lfoot ltoes
    rhipjoint rfemur
    rfemur rtibia
    rtibia rfoot
    rfoot rtoes
    lowerback upperback
    upperback thorax
    thorax lowerneck lclavicle rclavicle
    lowerneck upperneck
    upperneck head
    lclavicle lhumerus
    lhumerus lradius
    lradius lwrist
    lwrist lhand lthumb
    lhand lfingers
    rclavicle rhumerus
    rhumerus rradius
    rradius rwrist
    rwrist rhand rthumb
    rhand rfingers
  end

#!OML:ASF X:\für Bonn\!DataBase\2005_08_11_Bastian_Final\c3d\Bastian.ASF
:FULLY-SPECIFIED
:DEGREES
17
root -2.62838 17.1703 2.00226 161.015 -7.96614 -175.433
lowerback 16.076 -1.72508 2.30526
upperback 7.27793 -3.03505 1.7224
thorax -1.27178 -1.98084 1.02329
lowerneck -3.59444 -6.12723 -2.85208
upperneck -3.09477 -8.20327 6.81266
head 0.0683283 -4.16495 2.51006
rclavicle 3.81418e-015 -1.15295e-014
rhumerus -41.7726 39.8686 -106.573
rradius 31.6702
rwrist -35.821
rhand -45.6732 -3.06618
rfingers 7.12502
rthumb -18.4314 -32.213
lclavicle 3.81418e-015 -1.15295e-014
lhumerus -0.72299 -28.0634 87.2414
lradius 75.4792
lwrist -7.45615
lhand -52.7666 -8.33883
lfingers 7.12502
lthumb -25.2422 20.0115
rfemur -26.8351 1.59976 20.019
rtibia 79.9545
rfoot 17.9604 -0.741953
rtoes -24.6656
lfemur 10.1862 0.74571 -17.0929
ltibia 30.4587
lfoot -15.0897 -5.03516
ltoes -4.17891
18
root -2.67631 17.1776 2.04343 160.622 -7.72651 -175.333
lowerback 16.8874 -1.80699 2.58959
upperback 7.42172 -3.14983 1.81826
thorax -1.54756 -2.06823 1.02189
lowerneck -3.80963 -6.04616 -2.85605
upperneck -3.1037 -8.09364 6.71863
head 0.0922366 -4.10766 2.47529
rclavicle -4.36954e-014 2.14687e-014
rhumerus -43.6353 40.6797 -107.769
rradius 31.21
rwrist -36.6963
rhand -45.0318 -3.7057
rfingers 7.12502
rthumb -17.8142 -32.9098
lclavicle -4.36954e-014 2.14687e-014
lhumerus 0.738708 -27.4682 86.8366
lradius 76.8564
lwrist -8.17351
lhand -53.0703 -8.69599
lfingers 7.12502
lthumb -25.5331 19.613
rfemur -28.4818 2.34193 20.0934
rtibia 82.2203
rfoot 18.562 0.145344
rtoes -24.9785
lfemur 10.7197 1.00437 -17.0361
ltibia 30.0176
lfoot -14.7464 -5.10777
ltoes -3.74516
19
root -2.72124 17.1875 2.08093 160.215 -7.57213 -175.228
lowerback 17.6424 -1.91624 2.87171
upperback 7.60292 -3.30677 1.88648
thorax -1.75299 -2.17871 0.999059
lowerneck -4.03113 -5.96855 -2.87681
upperneck -3.15347 -7.98962 6.67945
head 0.108002 -4.05519 2.4621
rclavicle 2.51214e-014 -2.72335e-014
rhumerus -45.731 41.6474 -109.252
rradius 30.949
rwrist -37.502
rhand -44.4862 -4.3406
rfingers 7.12502
rthumb -17.2892 -33.5916
lclavicle 2.51214e-014 -2.72335e-014
lhumerus 2.18109 -26.8593 86.4584
lradius 78.2499
lwrist -8.88306
lhand -53.2916 -8.97947
lfingers 7.12502
lthumb -25.7451 19.299
rfemur -30.1713 2.80469 20.1648
rtibia 84.6269
rfoot 18.7781 0.88949
rtoes -24.7591
lfemur 11.2881 1.22313 -16.971
ltibia 29.5265
lfoot -14.3812 -5.22607
ltoes -3.1922
20
root -2.76245 17.2019 2.11242 159.793 -7.57167 -175.061
lowerback 18.3333 -2.09548 3.15142
upperback 7.79325 -3.55768 1.97527
thorax -1.91202 -2.33743 1.01698
lowerneck -4.28286 -5.87579 -2.96697
upperneck -3.16993 -7.86222 6.64822
head 0.141601 -3.98896 2.46285
rclavicle -2.29099e-014 4.53229e-014
rhumerus -48.1338 42.7716 -111.02
rradius 30.8971
rwrist -38.2773
rhand -44.0215 -4.89597
rfingers 7.12502
rthumb -16.8419 -34.1856
lclavicle -2.29099e-014 4.53229e-014
lhumerus 3.60856 -26.2251 86.1365
lradius 79.6262
lwrist -9.51562
lhand -53.5019 -9.159
lfingers 7.12502
lthumb -25.9464 19.0901
rfemur -31.8503 2.82855 20.2625
rtibia 87.1552
rfoot 18.5751 1.37084
rtoes -24.5322
lfemur 11.8864 1.3873 -16.8301
ltibia 28.9722
lfoot -13.9548 -5.44161
ltoes -2.74178
21
root -2.80033 17.2172 2.13857 159.357 -7.72903 -174.909
lowerback 18.9559 -2.31563 3.36772
upperback 8.00694 -3.87755 2.06254
thorax -2.00627 -2.53276 1.08212
lowerneck -4.47539 -5.78347 -3.17764
upperneck -3.24855 -7.7294 6.69603
head 0.153977 -3.9213 2.51447
rclavicle 2.70099e-014 -2.0276e-014
rhumerus -50.5411 43.782 -112.836
rradius 30.8091
rwrist -38.7691
rhand -43.5906 -5.24358
rfingers 7.12502
rthumb -16.4271 -34.568
lclavicle 2.70099e-014 -2.0276e-014
lhumerus 4.99263 -25.5276 85.9194
lradius 80.9671
lwrist -10.1472
lhand -53.6156 -9.38421
lfingers 7.12502
lthumb -26.0553 18.8489
rfemur -33.5267 2.4965 20.2898
rtibia 89.8161
rfoot 17.9936 1.60891
rtoes -24.4574
lfemur 12.5349 1.53502 -16.6955
ltibia 28.3401
lfoot -13.462 -5.78719
ltoes -2.06662
22
root -2.83624 17.2349 2.16149 158.909 -7.95877 -174.717
lowerback 19.5727 -2.58905 3.54886
upperback 8.22086 -4.27567 2.17091
thorax -2.09172 -2.77007 1.21032
lowerneck -4.72369 -5.92823 -3.35556
upperneck -3.24478 -7.50572 6.70714
head 0.19675 -3.61529 2.54772
rclavicle 1.13804e-014 -1.59028e-014
rhumerus -52.9536 44.6991 -114.68
rradius 30.7121
rwrist -39.0058
rhand -43.1911 -5.46939
rfingers 7.12502
rthumb -16.0424 -34.8252
lclavicle 1.13804e-014 -1.59028e-014
lhumerus 6.3576 -24.7709 85.716
lradius 82.2322
lwrist -10.6916
lhand -53.794 -9.70126
lfingers 7.12502
lthumb -26.2262 18.5066
rfemur -35.2469 1.92181 20.3491
rtibia 92.5836
rfoot 17.1788 1.56796
rtoes -24.0033
lfemur 13.2115 1.60421 -16.537
ltibia 27.6528
lfoot -12.9641 -6.13705
ltoes -1.61872
23
root -2.86901 17.2552 2.18246 158.448 -8.27919 -174.516
lowerback 20.1975 -2.90083 3.69397
upperback 8.42167 -4.72688 2.26107
thorax -2.19201 -3.03371 1.35833
lowerneck -4.9175 -5.79615 -3.54343
upperneck -3.29399 -7.31026 6.71868
head 0.212336 -3.5112 2.58565
rclavicle 3.15074e-014 1.19271e-015
rhumerus -55.3823 45.4796 -116.563
rradius 30.709
rwrist -39.1432
rhand -42.7617 -5.58012
rfingers 7.12502
rthumb -15.6289 -34.9688
lclavicle 3.15074e-014 1.19271e-015
lhumerus 7.6666 -24.0271 85.5309
lradius 83.4788
lwrist -11.172
lhand -53.9475 -9.96753
lfingers 7.12502
lthumb -26.3731 18.2184
rfemur -37.0419 1.17 20.3899
rtibia 95.4337
rfoot 16.3782 1.19519
rtoes -22.4013
lfemur 13.8969 1.67271 -16.3609
ltibia 26.9508
lfoot -12.4077 -6.53283
ltoes -1.2049
24
root -2.90025 17.274 2.20112 157.956 -8.61861 -174.258
lowerback 20.8153 -3.22857 3.87582
upperback 8.6395 -5.19958 2.36633
thorax -2.26754 -3.31118 1.51188
lowerneck -5.14993 -5.66677 -3.77625
upperneck -3.32499 -7.1144 6.76172
head 0.243123 -3.40505 2.64117
rclavicle -4.77083e-014 6.2816e-014
rhumerus -57.5689 46.0045 -118.211
rradius 30.7116
rwrist -39.076
rhand -42.3163 -5.58881
rfingers 7.12502
rthumb -15.1998 -35.0105
lclavicle -4.77083e-014 6.2816e-014
lhumerus 8.98011 -23.3063 85.3834
lradius 84.6455
lwrist -11.6019
lhand -54.1529 -10.3889
lfingers 7.12502
lthumb -26.5696 17.7674
rfemur -38.8943 0.293725 20.4668
rtibia 98.3089
rfoot 15.6905 0.556532
rtoes -20.5827
lfemur 14.597 1.65543 -16.1504
ltibia 26.2862
lfoot -11.9073 -6.8978
ltoes -0.829173
25
root -2.93044 17.2884 2.21914 157.395 -9.01777 -173.941
lowerback 21.4961 -3.58475 4.08829
upperback 8.86933 -5.70901 2.48328
thorax -2.35841 -3.61145 1.68143
lowerneck -5.38074 -5.53926 -3.97352
upperneck -3.3867 -6.9189 6.77803
head 0.26089 -3.29918 2.68261
rclavicle -4.17448e-015 -1.07344e-014
rhumerus -59.4225 46.2421 -119.47
rradius 30.7658
rwrist -38.8156
rhand -41.7274 -5.53893
rfingers 7.12502
rthumb -14.6325 -35.0027
lclavicle -4.17448e-015 -1.07344e-014
lhumerus 10.3035 -22.6327 85.2345
lradius 85.7632
lwrist -11.9643
lhand -54.3754 -10.7858
lfingers 7.12502
lthumb -26.7826 17.3381
rfemur -40.7388 -0.78277 20.5992
rtibia 101.173
rfoot 14.975 -0.128731
rtoes -19.0747
lfemur 15.3081 1.52276 -15.93
ltibia 25.7077
lfoot -11.4727 -7.19515
ltoes -0.765623
26
root -2.95882 17.2996 2.23579 156.795 -9.42882 -173.584
lowerback 22.2028 -3.95307 4.30607
upperback 9.09884 -6.23458 2.60366
thorax -2.45783 -3.92241 1.86656
lowerneck -5.60001 -5.40241 -4.16244
upperneck -3.43937 -6.7115 6.78493
head 0.277765 -3.18775 2.72054
rclavicle -5.04416e-014 6.04305e-014
rhumerus -60.9453 46.2122 -120.373
rradius 30.8368
rwrist -38.4738
rhand -41.0624 -5.33374
rfingers 7.12502
rthumb -13.9917 -34.8429
lclavicle -5.04416e-014 6.04305e-014
lhumerus 11.6092 -22.0148 85.0723
lradius 86.8685
lwrist -12.2206
lhand -54.5726 -11.2222
lfingers 7.12502
lthumb -26.9713 16.8726
rfemur -42.5582 -1.98094 20.8303
rtibia 103.977
rfoot 14.1789 -0.697922
rtoes -17.84
lfemur 16.0023 1.36256 -15.6634
ltibia 25.234
lfoot -11.0872 -7.53253
ltoes -0.562014
27
root -2.98608 17.306 2.25197 156.166 -9.85098 -173.211
lowerback 22.9466 -4.32594 4.53388
upperback 9.32869 -6.76365 2.70833
thorax -2.57284 -4.23674 2.04332
lowerneck -5.82803 -5.26653 -4.32352
upperneck -3.51062 -6.50243 6.8104
head 0.289489 -3.07455 2.76022
rclavicle 5.36222e-014 -5.88403e-014
rhumerus -62.1737 45.966 -120.943
rradius 30.9949
rwrist -38.1231
rhand -40.3382 -5.06255
rfingers 7.12502
rthumb -13.2938 -34.6186
lclavicle 5.36222e-014 -5.88403e-014
lhumerus 12.8927 -21.4776 84.8853
lradius 87.9771
lwrist -12.3571
lhand -54.7889 -11.7671
lfingers 7.12502
lthumb -27.1782 16.2956
rfemur -44.3991 -3.26173 21.0928
rtibia 106.732
rfoot 13.3037 -1.07117
rtoes -16.6105
lfemur 16.6611 1.12204 -15.4238
ltibia 24.8849
lfoot -10.8047 -7.78428
ltoes -0.667555
28
root -3.00997 17.3121 2.26782 155.514 -10.2822 -172.863
lowerback 23.7331 -4.67558 4.66608
upperback 9.55098 -7.2798 2.82182
thorax -2.70144 -4.54891 2.29372
lowerneck -6.04188 -5.13269 -4.45293
upperneck -3.57839 -6.29846 6.80486
head 0.297375 -2.96486 2.78436
rclavicle -7.42461e-014 5.88403e-014
rhumerus -63.1839 45.5941 -121.267
rradius 31.215
rwrist -37.8171
rhand -39.6243 -4.85737
rfingers 7.12502
rthumb -12.6056 -34.457
lclavicle -7.42461e-014 5.88403e-014
lhumerus 14.0987 -21.0077 84.7191
lradius 89.1136
lwrist -12.4258
lhand -55.002 -12.3428
lfingers 7.12502
lthumb -27.3821 15.6878
rfemur -46.268 -4.51423 21.3243
rtibia 109.43
rfoot 12.4455 -1.18875
rtoes -15.1157
lfemur 17.2879 0.931087 -15.1813
ltibia 24.6539
lfoot -10.5734 -8.10915
ltoes -0.837056
